<svg xmlns="http://www.w3.org/2000/svg" xmlns:xlink="http://www.w3.org/1999/xlink" width="500" zoomAndPan="magnify" viewBox="0 0 375 374.999991" height="500" preserveAspectRatio="xMidYMid meet" version="1.0"><defs><g/><clipPath id="082977367c"><path d="M 75 75 L 300 75 L 300 300 L 75 300 Z M 75 75 " clip-rule="nonzero"/></clipPath><clipPath id="6e3c9eb529"><path d="M 75 54.355469 L 300 54.355469 L 300 95.644531 L 75 95.644531 Z M 75 54.355469 " clip-rule="nonzero"/></clipPath><clipPath id="1a775d3991"><path d="M 187.5 54.355469 C 125.367188 54.355469 75 63.597656 75 75 C 75 86.402344 125.367188 95.644531 187.5 95.644531 C 249.632812 95.644531 300 86.402344 300 75 C 300 63.597656 249.632812 54.355469 187.5 54.355469 Z M 187.5 54.355469 " clip-rule="nonzero"/></clipPath><clipPath id="956a096feb"><path d="M 75.019531 54.355469 L 299.980469 54.355469 L 299.980469 95.605469 L 75.019531 95.605469 Z M 75.019531 54.355469 " clip-rule="nonzero"/></clipPath><clipPath id="1de27b3f52"><path d="M 187.5 54.355469 C 125.378906 54.355469 75.019531 63.59375 75.019531 74.996094 C 75.019531 86.398438 125.378906 95.640625 187.5 95.640625 C 249.621094 95.640625 299.980469 86.398438 299.980469 74.996094 C 299.980469 63.59375 249.621094 54.355469 187.5 54.355469 Z M 187.5 54.355469 " clip-rule="nonzero"/></clipPath><clipPath id="06c244a93c"><path d="M 75 279.355469 L 300 279.355469 L 300 320.644531 L 75 320.644531 Z M 75 279.355469 " clip-rule="nonzero"/></clipPath><clipPath id="04f68a2e60"><path d="M 187.5 279.355469 C 125.367188 279.355469 75 288.597656 75 300 C 75 311.402344 125.367188 320.644531 187.5 320.644531 C 249.632812 320.644531 300 311.402344 300 300 C 300 288.597656 249.632812 279.355469 187.5 279.355469 Z M 187.5 279.355469 " clip-rule="nonzero"/></clipPath><clipPath id="28cacd0ce2"><path d="M 75.019531 279.355469 L 299.980469 279.355469 L 299.980469 320.605469 L 75.019531 320.605469 Z M 75.019531 279.355469 " clip-rule="nonzero"/></clipPath><clipPath id="cf4718274a"><path d="M 187.5 279.355469 C 125.378906 279.355469 75.019531 288.59375 75.019531 299.996094 C 75.019531 311.398438 125.378906 320.640625 187.5 320.640625 C 249.621094 320.640625 299.980469 311.398438 299.980469 299.996094 C 299.980469 288.59375 249.621094 279.355469 187.5 279.355469 Z M 187.5 279.355469 " clip-rule="nonzero"/></clipPath><clipPath id="d0939d87c6"><path d="M 112.5 123.421875 L 262.5 123.421875 L 262.5 273.421875 L 112.5 273.421875 Z M 112.5 123.421875 " clip-rule="nonzero"/></clipPath></defs><path fill="#d9d9d9" d="M 75 75 L 300 75 L 300 300 L 75 300 Z M 75 75 " fill-opacity="1" fill-rule="nonzero"/><g clip-path="url(#082977367c)"><path stroke-linecap="butt" transform="matrix(0.75, 0, 0, 0.75, 75, 74.999995)" fill="none" stroke-linejoin="miter" d="M 0.000000566667 0.00000656667 L 300.00002 0.00000656667 L 300.00002 300.000026 L 0.000000566667 300.000026 Z M 0.000000566667 0.00000656667 " stroke="#d9d9d9" stroke-width="2" stroke-opacity="1" stroke-miterlimit="4"/></g><g clip-path="url(#6e3c9eb529)"><g clip-path="url(#1a775d3991)"><path fill="#d9d9d9" d="M 75 54.355469 L 300.011719 54.355469 L 300.011719 95.644531 L 75 95.644531 Z M 75 54.355469 " fill-opacity="1" fill-rule="nonzero"/></g></g><g clip-path="url(#956a096feb)"><g clip-path="url(#1de27b3f52)"><path stroke-linecap="butt" transform="matrix(0.75, 0, 0, 0.75, 75.020836, 54.353596)" fill="none" stroke-linejoin="miter" d="M 149.972228 0.00249749 C 67.144098 0.00249749 -0.00174016 12.320207 -0.00174016 27.523333 C -0.00174016 42.726459 67.144098 55.049376 149.972228 55.049376 C 232.800358 55.049376 299.946196 42.726459 299.946196 27.523333 C 299.946196 12.320207 232.800358 0.00249749 149.972228 0.00249749 Z M 149.972228 0.00249749 " stroke="#a6a6a6" stroke-width="2" stroke-opacity="1" stroke-miterlimit="4"/></g></g><g clip-path="url(#06c244a93c)"><g clip-path="url(#04f68a2e60)"><path fill="#d9d9d9" d="M 75 279.355469 L 300.011719 279.355469 L 300.011719 320.644531 L 75 320.644531 Z M 75 279.355469 " fill-opacity="1" fill-rule="nonzero"/></g></g><g clip-path="url(#28cacd0ce2)"><g clip-path="url(#cf4718274a)"><path stroke-linecap="butt" transform="matrix(0.75, 0, 0, 0.75, 75.020836, 279.353595)" fill="none" stroke-linejoin="miter" d="M 149.972228 0.00249799 C 67.144098 0.00249799 -0.00174016 12.320207 -0.00174016 27.523333 C -0.00174016 42.726459 67.144098 55.049377 149.972228 55.049377 C 232.800358 55.049377 299.946196 42.726459 299.946196 27.523333 C 299.946196 12.320207 232.800358 0.00249799 149.972228 0.00249799 Z M 149.972228 0.00249799 " stroke="#d9d9d9" stroke-width="2" stroke-opacity="1" stroke-miterlimit="4"/></g></g><g clip-path="url(#d0939d87c6)"><path stroke-linecap="butt" transform="matrix(0.75, 0, 0, 0.75, 112.499997, 123.420213)" fill-opacity="1" fill="#ffffff" fill-rule="nonzero" stroke-linejoin="miter" d="M 0.00000385 0.00221641 L 200.000017 0.00221641 L 200.000017 200.00223 L 0.00000385 200.00223 Z M 0.00000385 0.00221641 " stroke="#545454" stroke-width="4" stroke-opacity="1" stroke-miterlimit="4"/></g><path stroke-linecap="butt" transform="matrix(0.75, 0, 0, 0.75, 98.313132, 271.920217)" fill="none" stroke-linejoin="miter" d="M -0.000843259 1.00221 L 18.915825 1.00221 " stroke="#545454" stroke-width="2" stroke-opacity="1" stroke-miterlimit="4"/><path stroke-linecap="butt" transform="matrix(0.75, -0.000000000000001116, 0.000000000000001116, 0.75, 98.313132, 123.420213)" fill="none" stroke-linejoin="miter" d="M -0.000843259 1.002216 L 18.915825 1.002216 " stroke="#545454" stroke-width="2" stroke-opacity="1" stroke-miterlimit="4"/><path stroke-linecap="butt" transform="matrix(0.75, 0, 0, 0.75, 98.313132, 211.949986)" fill="none" stroke-linejoin="miter" d="M -0.000843259 0.998977 L 18.915825 0.998977 " stroke="#545454" stroke-width="2" stroke-opacity="1" stroke-miterlimit="4"/><path stroke-linecap="butt" transform="matrix(0.75, 0, 0, 0.75, 98.313132, 241.949984)" fill="none" stroke-linejoin="miter" d="M -0.000843259 0.99898 L 18.915825 0.99898 " stroke="#545454" stroke-width="2" stroke-opacity="1" stroke-miterlimit="4"/><path stroke-linecap="butt" transform="matrix(0.75, 0, 0, 0.75, 98.313132, 151.94999)" fill="none" stroke-linejoin="miter" d="M -0.000843259 0.998972 L 18.915825 0.998972 " stroke="#545454" stroke-width="2" stroke-opacity="1" stroke-miterlimit="4"/><path stroke-linecap="butt" transform="matrix(0.75, 0, 0, 0.75, 98.313132, 181.920209)" fill="none" stroke-linejoin="miter" d="M -0.000843259 1.002222 L 18.915825 1.002222 " stroke="#545454" stroke-width="2" stroke-opacity="1" stroke-miterlimit="4"/><g fill="#000000" fill-opacity="1"><g transform="translate(88.435479, 275.670186)"><g><path d="M 4.703125 -3.21875 C 4.703125 -2.113281 4.523438 -1.285156 4.171875 -0.734375 C 3.816406 -0.179688 3.28125 0.09375 2.5625 0.09375 C 1.875 0.09375 1.347656 -0.1875 0.984375 -0.75 C 0.628906 -1.3125 0.453125 -2.132812 0.453125 -3.21875 C 0.453125 -4.34375 0.625 -5.175781 0.96875 -5.71875 C 1.320312 -6.257812 1.851562 -6.53125 2.5625 -6.53125 C 3.257812 -6.53125 3.789062 -6.242188 4.15625 -5.671875 C 4.519531 -5.109375 4.703125 -4.289062 4.703125 -3.21875 Z M 1.1875 -3.21875 C 1.1875 -2.28125 1.296875 -1.597656 1.515625 -1.171875 C 1.734375 -0.753906 2.082031 -0.546875 2.5625 -0.546875 C 3.050781 -0.546875 3.40625 -0.757812 3.625 -1.1875 C 3.84375 -1.625 3.953125 -2.300781 3.953125 -3.21875 C 3.953125 -4.144531 3.84375 -4.820312 3.625 -5.25 C 3.40625 -5.675781 3.050781 -5.890625 2.5625 -5.890625 C 2.082031 -5.890625 1.734375 -5.675781 1.515625 -5.25 C 1.296875 -4.832031 1.1875 -4.15625 1.1875 -3.21875 Z M 1.1875 -3.21875 "/></g></g></g><g fill="#000000" fill-opacity="1"><g transform="translate(88.435479, 246.420188)"><g><path d="M 3.140625 0 L 2.4375 0 L 2.4375 -4.578125 C 2.4375 -4.960938 2.445312 -5.320312 2.46875 -5.65625 C 2.40625 -5.59375 2.332031 -5.523438 2.25 -5.453125 C 2.175781 -5.390625 1.832031 -5.109375 1.21875 -4.609375 L 0.828125 -5.109375 L 2.53125 -6.421875 L 3.140625 -6.421875 Z M 3.140625 0 "/></g></g></g><g fill="#000000" fill-opacity="1"><g transform="translate(88.435479, 216.42019)"><g><path d="M 4.65625 0 L 0.4375 0 L 0.4375 -0.625 L 2.125 -2.328125 C 2.644531 -2.847656 2.984375 -3.21875 3.140625 -3.4375 C 3.304688 -3.664062 3.429688 -3.882812 3.515625 -4.09375 C 3.597656 -4.300781 3.640625 -4.53125 3.640625 -4.78125 C 3.640625 -5.125 3.535156 -5.394531 3.328125 -5.59375 C 3.117188 -5.789062 2.832031 -5.890625 2.46875 -5.890625 C 2.195312 -5.890625 1.941406 -5.84375 1.703125 -5.75 C 1.460938 -5.664062 1.195312 -5.507812 0.90625 -5.28125 L 0.515625 -5.78125 C 1.109375 -6.269531 1.753906 -6.515625 2.453125 -6.515625 C 3.054688 -6.515625 3.53125 -6.359375 3.875 -6.046875 C 4.21875 -5.742188 4.390625 -5.332031 4.390625 -4.8125 C 4.390625 -4.40625 4.273438 -4 4.046875 -3.59375 C 3.816406 -3.195312 3.390625 -2.695312 2.765625 -2.09375 L 1.359375 -0.71875 L 1.359375 -0.671875 L 4.65625 -0.671875 Z M 4.65625 0 "/></g></g></g><g fill="#000000" fill-opacity="1"><g transform="translate(88.435479, 185.670209)"><g><path d="M 4.421875 -4.90625 C 4.421875 -4.5 4.304688 -4.164062 4.078125 -3.90625 C 3.847656 -3.644531 3.519531 -3.472656 3.09375 -3.390625 L 3.09375 -3.34375 C 3.613281 -3.28125 4 -3.117188 4.25 -2.859375 C 4.5 -2.597656 4.625 -2.25 4.625 -1.8125 C 4.625 -1.207031 4.410156 -0.738281 3.984375 -0.40625 C 3.554688 -0.0703125 2.953125 0.09375 2.171875 0.09375 C 1.828125 0.09375 1.515625 0.0664062 1.234375 0.015625 C 0.953125 -0.0351562 0.675781 -0.128906 0.40625 -0.265625 L 0.40625 -0.953125 C 0.6875 -0.816406 0.984375 -0.710938 1.296875 -0.640625 C 1.617188 -0.566406 1.921875 -0.53125 2.203125 -0.53125 C 3.304688 -0.53125 3.859375 -0.96875 3.859375 -1.84375 C 3.859375 -2.613281 3.25 -3 2.03125 -3 L 1.390625 -3 L 1.390625 -3.640625 L 2.03125 -3.640625 C 2.53125 -3.640625 2.925781 -3.75 3.21875 -3.96875 C 3.519531 -4.1875 3.671875 -4.492188 3.671875 -4.890625 C 3.671875 -5.203125 3.5625 -5.445312 3.34375 -5.625 C 3.125 -5.800781 2.832031 -5.890625 2.46875 -5.890625 C 2.1875 -5.890625 1.921875 -5.851562 1.671875 -5.78125 C 1.421875 -5.707031 1.132812 -5.566406 0.8125 -5.359375 L 0.453125 -5.84375 C 0.710938 -6.050781 1.015625 -6.210938 1.359375 -6.328125 C 1.703125 -6.453125 2.066406 -6.515625 2.453125 -6.515625 C 3.078125 -6.515625 3.5625 -6.367188 3.90625 -6.078125 C 4.25 -5.796875 4.421875 -5.40625 4.421875 -4.90625 Z M 4.421875 -4.90625 "/></g></g></g><g fill="#000000" fill-opacity="1"><g transform="translate(88.435479, 156.720211)"><g><path d="M 4.96875 -1.484375 L 4.015625 -1.484375 L 4.015625 0 L 3.3125 0 L 3.3125 -1.484375 L 0.1875 -1.484375 L 0.1875 -2.109375 L 3.234375 -6.453125 L 4.015625 -6.453125 L 4.015625 -2.140625 L 4.96875 -2.140625 Z M 3.3125 -2.140625 L 3.3125 -4.28125 C 3.3125 -4.695312 3.328125 -5.171875 3.359375 -5.703125 L 3.328125 -5.703125 C 3.179688 -5.421875 3.046875 -5.1875 2.921875 -5 L 0.921875 -2.140625 Z M 3.3125 -2.140625 "/></g></g></g><g fill="#000000" fill-opacity="1"><g transform="translate(88.435479, 127.170205)"><g><path d="M 2.453125 -3.921875 C 3.128906 -3.921875 3.660156 -3.753906 4.046875 -3.421875 C 4.429688 -3.085938 4.625 -2.628906 4.625 -2.046875 C 4.625 -1.378906 4.410156 -0.851562 3.984375 -0.46875 C 3.566406 -0.09375 2.984375 0.09375 2.234375 0.09375 C 1.515625 0.09375 0.960938 -0.0234375 0.578125 -0.265625 L 0.578125 -0.96875 C 0.785156 -0.832031 1.039062 -0.726562 1.34375 -0.65625 C 1.65625 -0.582031 1.957031 -0.546875 2.25 -0.546875 C 2.769531 -0.546875 3.171875 -0.664062 3.453125 -0.90625 C 3.734375 -1.144531 3.875 -1.492188 3.875 -1.953125 C 3.875 -2.859375 3.328125 -3.3125 2.234375 -3.3125 C 1.953125 -3.3125 1.578125 -3.265625 1.109375 -3.171875 L 0.734375 -3.421875 L 0.984375 -6.421875 L 4.171875 -6.421875 L 4.171875 -5.75 L 1.609375 -5.75 L 1.4375 -3.828125 C 1.78125 -3.890625 2.117188 -3.921875 2.453125 -3.921875 Z M 2.453125 -3.921875 "/></g></g></g><path stroke-linecap="butt" transform="matrix(0.75, 0, 0, 0.75, 103.563132, 256.949983)" fill="none" stroke-linejoin="miter" d="M -0.000842799 0.998981 L 12.915825 0.998981 " stroke="#545454" stroke-width="2" stroke-opacity="1" stroke-miterlimit="4"/><path stroke-linecap="butt" transform="matrix(0.75, 0, 0, 0.75, 102.813132, 226.949985)" fill="none" stroke-linejoin="miter" d="M -0.000842865 0.998978 L 12.915825 0.998978 " stroke="#545454" stroke-width="2" stroke-opacity="1" stroke-miterlimit="4"/><path stroke-linecap="butt" transform="matrix(0.75, 0, 0, 0.75, 102.813132, 196.949987)" fill="none" stroke-linejoin="miter" d="M -0.000842865 0.998976 L 12.915825 0.998976 " stroke="#545454" stroke-width="2" stroke-opacity="1" stroke-miterlimit="4"/><path stroke-linecap="butt" transform="matrix(0.75, 0.00000000000000165, -0.00000000000000165, 0.75, 102.813132, 166.949989)" fill="none" stroke-linejoin="miter" d="M -0.000842865 0.998973 L 12.915825 0.998973 " stroke="#545454" stroke-width="2" stroke-opacity="1" stroke-miterlimit="4"/><path stroke-linecap="butt" transform="matrix(0.75, -0.000000000000001674, 0.000000000000001674, 0.75, 102.813132, 136.949991)" fill="none" stroke-linejoin="miter" d="M -0.000842865 0.99897 L 12.915825 0.99897 " stroke="#545454" stroke-width="2" stroke-opacity="1" stroke-miterlimit="4"/></svg>